<svg xmlns="http://www.w3.org/2000/svg" viewBox="0 0 900 600" width="22" height="15" aria-hidden="true">
  <rect fill="#FF9933" width="900" height="200"/>
  <rect fill="#FFF" y="200" width="900" height="200"/>
  <rect fill="#138808" y="400" width="900" height="200"/>
  <g transform="translate(450 300)" fill="none" stroke="#000080" stroke-linecap="round">
    <circle r="60" stroke-width="4"/>
    <g stroke-width="2.8">
      <line y2="-50"/><line y2="-50" transform="rotate(15)"/><line y2="-50" transform="rotate(30)"/>
      <line y2="-50" transform="rotate(45)"/><line y2="-50" transform="rotate(60)"/><line y2="-50" transform="rotate(75)"/>
      <line y2="-50" transform="rotate(90)"/><line y2="-50" transform="rotate(105)"/><line y2="-50" transform="rotate(120)"/>
      <line y2="-50" transform="rotate(135)"/><line y2="-50" transform="rotate(150)"/><line y2="-50" transform="rotate(165)"/>
      <line y2="-50" transform="rotate(180)"/><line y2="-50" transform="rotate(195)"/><line y2="-50" transform="rotate(210)"/>
      <line y2="-50" transform="rotate(225)"/><line y2="-50" transform="rotate(240)"/><line y2="-50" transform="rotate(255)"/>
      <line y2="-50" transform="rotate(270)"/><line y2="-50" transform="rotate(285)"/><line y2="-50" transform="rotate(300)"/>
      <line y2="-50" transform="rotate(315)"/><line y2="-50" transform="rotate(330)"/><line y2="-50" transform="rotate(345)"/>
    </g>
  </g>
</svg>
